<svg xmlns="http://www.w3.org/2000/svg" width="200" height="200" viewBox="0 0 100 100">
    
    <rect width="100" height="100" fill="white" />

    <rect x="10" y="20" width="15" height="15" stroke-width="1" stroke="black" fill="none" /><text font-family="consolas, monospace"><tspan x="15" y="31" font-size="10" fill="blue">1</tspan></text>
    <rect x="25" y="20" width="15" height="15" stroke-width="1" stroke="black" fill="none" /><text font-family="consolas, monospace"><tspan x="30" y="31" font-size="10" fill="blue">2</tspan></text>
    <rect x="40" y="20" width="15" height="15" stroke-width="1" stroke="black" fill="none" /><text font-family="consolas, monospace"><tspan x="45" y="31" font-size="10" fill="blue">3</tspan></text>
    <rect x="10" y="35" width="15" height="15" stroke-width="1" stroke="black" fill="none" /><text font-family="consolas, monospace"><tspan x="15" y="46" font-size="10" fill="blue">4</tspan></text>
    <rect x="25" y="35" width="15" height="15" stroke-width="1" stroke="black" fill="none" /><text font-family="consolas, monospace"><tspan x="30" y="46" font-size="10" fill="blue">5</tspan></text>
    <rect x="40" y="35" width="15" height="15" stroke-width="1" stroke="black" fill="none" /><text font-family="consolas, monospace"><tspan x="45" y="46" font-size="10" fill="blue">6</tspan></text>
    <rect x="10" y="50" width="15" height="15" stroke-width="1" stroke="gray" fill="none" /><text font-family="consolas, monospace"><tspan x="15" y="61" font-size="10" fill="gray">7</tspan></text>
    <rect x="25" y="50" width="15" height="15" stroke-width="1" stroke="gray" fill="none" /><text font-family="consolas, monospace"><tspan x="30" y="61" font-size="10" fill="gray">8</tspan></text>
    <rect x="40" y="50" width="15" height="15" stroke-width="1" stroke="gray" fill="none" /><text font-family="consolas, monospace"><tspan x="45" y="61" font-size="10" fill="gray">9</tspan></text>

    <rect x="10" y="20" width="15" height="15" stroke-width="1" stroke="rgba(0, 0, 255, 0.5)" fill="none" />
    <rect x="25" y="20" width="15" height="15" stroke-width="1" stroke="rgba(0, 0, 255, 0.5)" fill="none" />
    <rect x="40" y="20" width="15" height="15" stroke-width="1" stroke="rgba(0, 0, 255, 0.5)" fill="none" />
    <rect x="55" y="20" width="15" height="15" stroke-width="1" stroke="rgba(0, 0, 255, 0.5)" fill="none" /><text font-family="consolas, monospace"><tspan x="60" y="31" font-size="10" fill="black">0</tspan></text>
    <rect x="10" y="35" width="15" height="15" stroke-width="1" stroke="rgba(0, 0, 255, 0.5)" fill="none" />
    <rect x="25" y="35" width="15" height="15" stroke-width="1" stroke="rgba(0, 0, 255, 0.5)" fill="none" />
    <rect x="40" y="35" width="15" height="15" stroke-width="1" stroke="rgba(0, 0, 255, 0.5)" fill="none" />
    <rect x="55" y="35" width="15" height="15" stroke-width="1" stroke="rgba(0, 0, 255, 0.5)" fill="none" /><text font-family="consolas, monospace"><tspan x="60" y="46" font-size="10" fill="black">0</tspan></text>

</svg>